<svg width="25" height="29" viewBox="0 0 25 29" fill="none" xmlns="http://www.w3.org/2000/svg">
<path d="M5.5 6.25V2.125C5.5 1.76033 5.64487 1.41059 5.90273 1.15273C6.16059 0.894866 6.51033 0.75 6.875 0.75H23.375C23.7397 0.75 24.0894 0.894866 24.3473 1.15273C24.6051 1.41059 24.75 1.76033 24.75 2.125V21.375C24.75 21.7397 24.6051 22.0894 24.3473 22.3473C24.0894 22.6051 23.7397 22.75 23.375 22.75H19.25V26.875C19.25 27.634 18.6313 28.25 17.8654 28.25H1.38462C1.2033 28.2511 1.02355 28.2163 0.855693 28.1477C0.68784 28.0791 0.535196 27.9781 0.406531 27.8503C0.277865 27.7225 0.175715 27.5706 0.10595 27.4032C0.0361839 27.2358 0.00017789 27.0563 0 26.875L0.00412503 7.625C0.00412503 6.866 0.622875 6.25 1.38875 6.25H5.5ZM2.75412 9L2.75 25.5H16.5V9H2.75412ZM8.25 6.25H19.25V20H22V3.5H8.25V6.25Z" fill="white"/>
</svg>
