<svg width="23" height="24" viewBox="0 0 23 24" fill="none" xmlns="http://www.w3.org/2000/svg">
<rect y="0.5" width="23" height="23" rx="11.5" fill="#FFF4F3"/>
<path d="M12.791 9.262C12.791 10.18 12.757 11.0357 12.689 11.829C12.621 12.6223 12.5303 13.427 12.417 14.243H10.479C10.3657 13.427 10.2693 12.6223 10.19 11.829C10.122 11.0357 10.088 10.18 10.088 9.262V6.219H12.791V9.262ZM13.012 16.657C13.012 17.1557 12.8477 17.541 12.519 17.813C12.2017 18.085 11.839 18.221 11.431 18.221C11.023 18.221 10.6547 18.085 10.326 17.813C10.0087 17.541 9.85 17.1557 9.85 16.657C9.85 16.1583 10.0087 15.773 10.326 15.501C10.6547 15.229 11.023 15.093 11.431 15.093C11.839 15.093 12.2017 15.229 12.519 15.501C12.8477 15.773 13.012 16.1583 13.012 16.657Z" fill="#E3544B"/>
</svg>
