<svg width="742" height="306" viewBox="0 0 742 306" fill="none" xmlns="http://www.w3.org/2000/svg">
<path d="M382.707 250.833H341.61V262.266H354.132V302.486H369.372V262.266H381.106L382.707 250.833ZM340.289 250.833H325.608L316.032 270.346H311.206V250.833H295.966V302.486H311.206V281.118H315.651L325.227 302.486H341.61L328.503 273.776L340.289 250.833ZM290.531 250.833H256.622V302.486H290.15V291.789H271.913V281.398H286.898V271.082H271.913V261.453H288.956L290.531 250.833ZM214.128 250.833L211.156 275.478C209.759 287.038 209.15 291.357 203.892 293.568L207.448 303.959C220.148 301.673 223.323 292.45 225.228 276.647L226.93 262.114H234.27V302.486H249.51V250.833H214.128ZM200.336 250.833H157.994V302.486H173.234V262.266H185.02V302.486H200.26L200.336 250.833ZM149.232 250.833H130.309L124.975 284.294L119.057 250.833H100.134L96.4253 302.486H111.487L111.843 284.066C111.969 277.057 111.646 270.047 110.878 263.079L117.406 297.277H131.883L138.03 263.13C137.467 270.136 137.298 277.168 137.522 284.193L137.878 302.536H152.94L149.232 250.833ZM69.8063 260.183C75.5721 260.183 78.0359 264.629 78.0359 276.596C78.0359 288.563 75.7245 293.136 69.8063 293.136C63.8882 293.136 61.5768 288.537 61.5768 276.596C61.5768 264.654 64.0152 260.183 69.8063 260.183ZM69.8063 249.359C54.287 249.359 45.7019 259.827 45.7019 276.596C45.7019 293.365 54.287 303.959 69.8063 303.959C85.3256 303.959 93.9108 293.339 93.9108 276.596C93.9108 259.446 85.3002 249.359 69.8063 249.359ZM44.7367 250.833H30.0556L20.4799 270.346H15.6539V250.833H0.414062V302.486H15.6539V281.118H20.0989L29.6746 302.486H46.0575L32.9258 273.776L44.7367 250.833Z" fill="#003E70"/>
<path d="M608.693 250.832H590.913L579.433 287.647C580.908 280.972 581.649 274.157 581.643 267.321V250.908H566.758V302.561H584.843L595.968 265.39C594.423 272.406 593.673 279.574 593.733 286.758V302.561H608.643L608.693 250.832ZM587.815 247.123C596.705 247.123 600.946 241.482 601.531 234.063L593.911 232.818C593.478 234.089 592.659 235.192 591.568 235.973C590.477 236.755 589.169 237.175 587.827 237.175C586.486 237.175 585.178 236.755 584.087 235.973C582.996 235.192 582.176 234.089 581.744 232.818L574.124 234.063C574.658 241.482 578.899 247.123 587.815 247.123ZM537.294 260.182C543.086 260.182 545.549 264.628 545.549 276.595C545.549 288.562 543.238 293.135 537.294 293.135C531.351 293.135 529.065 288.536 529.065 276.595C529.065 264.653 531.503 260.182 537.269 260.182H537.294ZM537.294 249.358C521.801 249.358 513.19 259.826 513.19 276.595C513.19 293.364 521.801 303.958 537.294 303.958C552.788 303.958 561.399 293.338 561.399 276.595C561.373 259.445 552.788 249.358 537.269 249.358H537.294ZM487.689 275.629H484.133V261.452H487.231C492.311 261.452 494.293 263.993 494.293 268.21C494.267 273.292 491.956 275.629 487.663 275.629H487.689ZM487.46 250.832H468.842V302.485H484.082V286.377H489.162C501.405 286.377 509.863 280.304 509.863 268.21C509.837 256.625 501.303 250.832 487.435 250.832H487.46ZM465.286 250.832H424.164V262.265H436.711V302.485H451.951V262.265H463.686L465.286 250.832ZM406.612 249.358C392.16 249.358 382 259.293 382 276.519C382 294.304 391.703 303.958 406.841 303.958C413.228 303.88 419.329 301.299 423.833 296.768L417.153 288.308C414.548 290.772 411.157 292.238 407.578 292.449C401.431 292.449 397.875 287.367 397.875 276.519C397.875 265.67 401.431 260.334 407.374 260.334C410.61 260.451 413.713 261.65 416.188 263.739L423.224 255.431C418.635 251.392 412.697 249.225 406.587 249.358H406.612Z" fill="#C22C07"/>
<path d="M693.577 276.824C693.354 280.255 694.15 283.675 695.863 286.656C696.705 287.812 697.793 288.766 699.05 289.447C700.307 290.128 701.7 290.52 703.127 290.594V262.646C701.676 262.686 700.255 263.068 698.98 263.762C697.704 264.455 696.61 265.439 695.787 266.635C694.121 269.752 693.356 273.271 693.577 276.798M716.437 290.493C717.895 290.462 719.326 290.09 720.614 289.406C721.902 288.722 723.012 287.746 723.854 286.555C725.497 283.43 726.252 279.915 726.038 276.392C726.264 272.939 725.479 269.496 723.777 266.483C722.926 265.326 721.822 264.377 720.551 263.708C719.279 263.039 717.873 262.668 716.437 262.621V290.493ZM741.532 276.341C741.532 283.836 739.348 289.476 735.004 293.211C729.946 297.226 723.682 299.419 717.224 299.436V305.762H702.365V299.461C695.933 299.447 689.684 297.313 684.586 293.389C680.234 289.73 678.066 284.209 678.083 276.824C678.083 269.379 680.242 263.764 684.56 260.029C689.617 256.001 695.876 253.783 702.34 253.729V247.707H717.351V253.729C723.782 253.754 730.028 255.887 735.131 259.801C739.449 263.459 741.608 268.981 741.608 276.366L741.532 276.341ZM653.903 275.528C658.322 275.528 660.532 272.987 660.532 268.084C660.532 263.561 658.17 261.3 653.471 261.3H650.347V275.528H653.903ZM653.852 250.68C659.712 250.33 665.529 251.88 670.438 255.1C672.412 256.62 673.984 258.6 675.015 260.868C676.047 263.136 676.507 265.622 676.356 268.109C676.515 270.647 676.089 273.188 675.112 275.536C674.134 277.884 672.631 279.976 670.717 281.651C666.366 284.997 660.957 286.665 655.477 286.351H650.397V302.51H635.158V250.68H653.852ZM623.042 288.79C624.549 288.79 626.022 289.237 627.275 290.075C628.528 290.912 629.505 292.103 630.082 293.496C630.658 294.888 630.809 296.421 630.515 297.899C630.221 299.378 629.496 300.736 628.43 301.802C627.364 302.868 626.007 303.594 624.528 303.888C623.05 304.182 621.518 304.031 620.126 303.454C618.733 302.878 617.543 301.901 616.706 300.647C615.869 299.394 615.422 297.92 615.422 296.412C615.419 295.408 615.616 294.412 615.999 293.483C616.383 292.555 616.946 291.711 617.657 291.001C618.336 290.276 619.153 289.696 620.061 289.294C620.969 288.893 621.948 288.678 622.94 288.663L623.042 288.79Z" fill="#9C9C9C"/>
<path fill-rule="evenodd" clip-rule="evenodd" d="M235.164 74.2273L308.747 0.927734H364.906L235.164 130.123V74.2273Z" fill="#B1B2B3"/>
<path d="M273.035 0.927734H235.164V82.0781H273.035V0.927734Z" fill="#0074BC"/>
<path fill-rule="evenodd" clip-rule="evenodd" d="M243.875 65.5376L308.746 130.123H364.905L271.866 37.666L243.875 65.5376Z" fill="#003E70"/>
<path fill-rule="evenodd" clip-rule="evenodd" d="M271.941 93.4869L276.894 98.4412L304.936 70.5188L299.957 65.5898L271.941 93.4869Z" fill="#002B4D"/>
<path fill-rule="evenodd" clip-rule="evenodd" d="M331.375 65.5376L396.271 130.123H452.405L359.391 37.666L331.375 65.5376Z" fill="#C22C07"/>
<path fill-rule="evenodd" clip-rule="evenodd" d="M359.367 93.4107L364.346 98.3651L392.412 70.468L387.434 65.5391L359.367 93.4107Z" fill="#9D2304"/>
<path fill-rule="evenodd" clip-rule="evenodd" d="M235.164 74.2273L308.747 0.927734H364.906L235.164 130.123V74.2273Z" fill="#005E90"/>
<path d="M462.159 0.927734H506.837V35.8371H427.133L462.159 0.927734Z" fill="#9C9C9C"/>
<path d="M482.937 18.3323C482.937 15.5629 484.639 14.1401 488.246 13.8098V22.8548C484.817 22.5245 482.937 21.0509 482.937 18.3323ZM492.005 22.8548V13.8098C495.51 14.1147 497.288 15.5629 497.288 18.3069C497.288 21.0508 495.561 22.5499 492.005 22.8548ZM501.225 18.3323C501.225 13.7082 497.949 10.9134 492.005 10.7102V8.90625H488.246V10.7356C482.251 11.0659 478.975 13.8098 478.975 18.3577C478.975 22.9056 482.251 25.7258 488.246 25.9798V27.9108H492.005V26.0815C497.974 25.7766 501.225 22.9564 501.225 18.3323ZM469.45 18.9929H466.123V12.8698H469.45C471.99 12.8698 473.209 14.0131 473.209 15.944C473.209 17.875 471.965 18.9929 469.45 18.9929ZM469.679 9.54143H462.059V27.3264H466.148V22.3466H469.704C474.428 22.3466 477.324 19.8059 477.324 15.944C477.324 12.0821 474.403 9.54143 469.679 9.54143Z" fill="#070149"/>
<path fill-rule="evenodd" clip-rule="evenodd" d="M331.352 65.538L396.273 0.927734H452.407L359.368 93.4097L331.352 65.538Z" fill="#E63121"/>
<path d="M454.667 23.1094H450.578V27.1999H454.667V23.1094Z" fill="#070149"/>
</svg>
