<svg width="17" height="21" viewBox="0 0 17 21" fill="none" xmlns="http://www.w3.org/2000/svg">
<path d="M16.5 8.5C16.5 9.61181 16.0199 10.8909 15.2406 12.2189C14.4668 13.5377 13.4277 14.8549 12.3771 16.0308C11.3282 17.205 10.2778 18.2274 9.48871 18.9568C9.09452 19.3213 8.76636 19.6118 8.53732 19.8108C8.52457 19.8219 8.51213 19.8327 8.5 19.8432C8.48787 19.8327 8.47543 19.8219 8.46268 19.8108C8.23364 19.6118 7.90548 19.3213 7.51129 18.9568C6.72225 18.2274 5.67177 17.205 4.62288 16.0308C3.57233 14.8549 2.53324 13.5377 1.75936 12.2189C0.980105 10.8909 0.5 9.61181 0.5 8.5C0.5 3.80558 3.80558 0.5 8.5 0.5C13.1944 0.5 16.5 3.80558 16.5 8.5Z" stroke="#070149"/>
<circle cx="8.5" cy="8" r="3.5" stroke="#070149"/>
</svg>
