<svg width="38" height="38" viewBox="0 0 38 38" fill="none" xmlns="http://www.w3.org/2000/svg">
<g clip-path="url(#clip0_224_14860)">
<path d="M33.25 25.9983V31.597C33.2502 31.9979 33.0983 32.3839 32.825 32.6771C32.5517 32.9704 32.1774 33.1491 31.7775 33.1772C31.0856 33.2247 30.5203 33.25 30.0833 33.25C16.0914 33.25 4.75 21.9086 4.75 7.91667C4.75 7.47967 4.77375 6.91442 4.82283 6.2225C4.85089 5.82262 5.02959 5.44827 5.32286 5.17498C5.61612 4.90169 6.00214 4.74982 6.403 4.75H12.0017C12.1981 4.7498 12.3875 4.82261 12.5332 4.95428C12.679 5.08595 12.7705 5.26709 12.7902 5.4625C12.8266 5.82667 12.8598 6.11642 12.8915 6.3365C13.2062 8.53246 13.851 10.6682 14.8042 12.6714C14.9546 12.9881 14.8564 13.3665 14.5714 13.5692L11.1546 16.0107C13.2437 20.8785 17.123 24.7579 21.9909 26.847L24.4292 23.4365C24.5289 23.2972 24.6743 23.1972 24.8401 23.1541C25.0059 23.111 25.1816 23.1274 25.3365 23.2006C27.3394 24.152 29.4747 24.7952 31.6698 25.1085C31.8899 25.1402 32.1797 25.175 32.5407 25.2098C32.7358 25.2298 32.9165 25.3216 33.0479 25.4673C33.1792 25.6129 33.2502 25.8022 33.25 25.9983Z" fill="#757575"/>
</g>
<defs>
<clipPath id="clip0_224_14860">
<rect width="38" height="38" fill="white"/>
</clipPath>
</defs>
</svg>
