<svg width="21" height="21" viewBox="0 0 21 21" fill="none" xmlns="http://www.w3.org/2000/svg">
<path fill-rule="evenodd" clip-rule="evenodd" d="M15.9001 8.9866C15.9001 13.1442 12.6161 16.4732 8.61559 16.4732C4.61503 16.4732 1.33105 13.1442 1.33105 8.9866C1.33105 4.82901 4.61503 1.5 8.61559 1.5C12.6161 1.5 15.9001 4.82901 15.9001 8.9866ZM14.3536 15.1081C12.8648 16.5728 10.8428 17.4732 8.61559 17.4732C4.04017 17.4732 0.331055 13.6736 0.331055 8.9866C0.331055 4.29958 4.04017 0.5 8.61559 0.5C13.191 0.5 16.9001 4.29958 16.9001 8.9866C16.9001 11.0276 16.1968 12.9002 15.0249 14.3642L20.0202 19.4813C20.2131 19.6789 20.2093 19.9954 20.0117 20.1883C19.814 20.3812 19.4975 20.3774 19.3046 20.1798L14.3536 15.1081Z" fill="#E8E8E8"/>
</svg>
