<svg width="29" height="29" viewBox="0 0 29 29" fill="none" xmlns="http://www.w3.org/2000/svg">
<path fill-rule="evenodd" clip-rule="evenodd" d="M2.03854 1.96841C0 3.93681 0 7.10489 0 13.4411V14.5612C0 20.8974 0 24.0655 2.03854 26.034C4.07707 28.0023 7.35803 28.0023 13.92 28.0023H15.08C21.642 28.0023 24.9229 28.0023 26.9615 26.034C29 24.0655 29 20.8974 29 14.5612V13.4411C29 7.10489 29 3.93681 26.9615 1.96841C24.9229 0 21.642 0 15.08 0H13.92C7.35803 0 4.07707 0 2.03854 1.96841ZM4.89382 8.51744C5.05091 15.798 8.82089 20.1734 15.4305 20.1734H15.8051V16.0081C18.2339 16.2414 20.0704 17.9566 20.8075 20.1734H24.2392C23.2967 16.8598 20.8195 15.028 19.2729 14.3279C20.8195 13.4645 22.9945 11.3643 23.5141 8.51744H20.3965C19.7199 10.8276 17.7143 12.9278 15.8051 13.1262V8.51744H12.6875V16.5914C10.7542 16.1247 8.31339 13.8612 8.20464 8.51744H4.89382Z" fill="white"/>
</svg>
