<svg width="33" height="25" viewBox="0 0 33 25" fill="none" xmlns="http://www.w3.org/2000/svg">
<path d="M32.6713 5.90059C32.6713 5.90059 32.349 3.62539 31.3564 2.62637C30.0996 1.31152 28.6945 1.30508 28.05 1.22773C23.4352 0.892578 16.5064 0.892578 16.5064 0.892578H16.4936C16.4936 0.892578 9.56484 0.892578 4.95 1.22773C4.30547 1.30508 2.90039 1.31152 1.64355 2.62637C0.650977 3.62539 0.335156 5.90059 0.335156 5.90059C0.335156 5.90059 0 8.57539 0 11.2437V13.7445C0 16.4129 0.328711 19.0877 0.328711 19.0877C0.328711 19.0877 0.650976 21.3629 1.63711 22.3619C2.89395 23.6768 4.54395 23.6316 5.27871 23.7734C7.92129 24.0248 16.5 24.1021 16.5 24.1021C16.5 24.1021 23.4352 24.0893 28.05 23.7605C28.6945 23.6832 30.0996 23.6768 31.3564 22.3619C32.349 21.3629 32.6713 19.0877 32.6713 19.0877C32.6713 19.0877 33 16.4193 33 13.7445V11.2437C33 8.57539 32.6713 5.90059 32.6713 5.90059ZM13.0904 16.7803V7.50547L22.0043 12.159L13.0904 16.7803Z" fill="#757575"/>
</svg>
